<?xml version="1.0" encoding="utf-8"?>

<!-- Uploaded to: SVG Repo, www.svgrepo.com, Generator: SVG Repo Mixer Tools -->
<svg fill="#000000" height="800px" width="800px" version="1.1" id="Icons" xmlns="http://www.w3.org/2000/svg" xmlns:xlink="http://www.w3.org/1999/xlink" 
	 viewBox="0 0 32 32" xml:space="preserve">
<g>
	<path d="M8,12h0.2H16h8h5.4C27.7,6.2,22.3,2,16,2S4.3,6.2,2.6,12H8z"/>
	<path d="M25,14v2c0,1.7-1.3,3-3,3h-2.6c-1.3,0-2.4-0.8-2.8-2.1L16,15.6L15.4,17c-0.4,1.2-1.5,2-2.8,2H10c-1.7,0-3-1.3-3-3v-2H2.2
		C2.1,14.7,2,15.3,2,16c0,7.7,6.3,14,14,14s14-6.3,14-14c0-0.7-0.1-1.3-0.2-2H25z M21.9,21.8C20.3,23.2,18.2,24,16,24
		c-0.6,0-1-0.4-1-1s0.4-1,1-1c1.7,0,3.3-0.6,4.6-1.8c0.4-0.4,1-0.3,1.4,0.1C22.4,20.8,22.4,21.4,21.9,21.8z"/>
</g>
</svg>