<?xml version="1.0" encoding="utf-8"?>

<!-- Uploaded to: SVG Repo, www.svgrepo.com, Generator: SVG Repo Mixer Tools -->
<svg fill="#000000" height="800px" width="800px" version="1.1" id="Icons" xmlns="http://www.w3.org/2000/svg" xmlns:xlink="http://www.w3.org/1999/xlink" 
	 viewBox="0 0 32 32" xml:space="preserve">
<path d="M16,2C8.3,2,2,8.3,2,16s6.3,14,14,14s14-6.3,14-14S23.7,2,16,2z M21.9,18.8C20.3,20.2,18.2,21,16,21s-4.3-0.8-5.9-2.3
	c-0.4-0.4-0.5-1-0.1-1.4c0.4-0.4,1-0.5,1.4-0.1c1.3,1.1,2.9,1.8,4.6,1.8s3.3-0.6,4.6-1.8c0.4-0.4,1-0.3,1.4,0.1
	C22.4,17.8,22.4,18.4,21.9,18.8z M23.6,11.8c-0.8,0.5-1.6,0.9-2.6,1.3V16c0,0.6-0.4,1-1,1s-1-0.4-1-1v-2.3c-1,0.2-2,0.3-3,0.3
	s-2-0.1-3-0.3V16c0,0.6-0.4,1-1,1s-1-0.4-1-1v-2.9c-0.9-0.3-1.8-0.8-2.6-1.3c-0.5-0.3-0.6-0.9-0.3-1.4c0.3-0.5,0.9-0.6,1.4-0.3
	c1.8,1.2,4.1,1.8,6.4,1.8s4.7-0.7,6.4-1.8c0.5-0.3,1.1-0.2,1.4,0.3C24.1,10.9,24,11.5,23.6,11.8z"/>
</svg>