<?xml version="1.0" encoding="utf-8"?>

<!-- Uploaded to: SVG Repo, www.svgrepo.com, Generator: SVG Repo Mixer Tools -->
<svg fill="#000000" height="800px" width="800px" version="1.1" id="Icons" xmlns="http://www.w3.org/2000/svg" xmlns:xlink="http://www.w3.org/1999/xlink" 
	 viewBox="0 0 32 32" xml:space="preserve">
<path d="M16,2C8.3,2,2,8.3,2,16c0,5.8,3.6,11,9,13.1V31c0,0.6,0.4,1,1,1h8c0.6,0,1-0.4,1-1v-1.9c5.4-2.1,9-7.2,9-13.1
	C30,8.3,23.7,2,16,2z M11.1,20.7c0.4,0.4,0.4,1,0,1.4c-0.2,0.2-0.5,0.3-0.7,0.3s-0.5-0.1-0.7-0.3L9,21.4l-0.7,0.7
	c-0.2,0.2-0.5,0.3-0.7,0.3s-0.5-0.1-0.7-0.3c-0.4-0.4-0.4-1,0-1.4L7.6,20l-0.7-0.7c-0.4-0.4-0.4-1,0-1.4s1-0.4,1.4,0L9,18.6l0.7-0.7
	c0.4-0.4,1-0.4,1.4,0s0.4,1,0,1.4L10.4,20L11.1,20.7z M19,30h-6v-5c0-1.7,1.3-3,3-3s3,1.3,3,3V30z M25.1,20.7c0.4,0.4,0.4,1,0,1.4
	c-0.2,0.2-0.5,0.3-0.7,0.3s-0.5-0.1-0.7-0.3L23,21.4l-0.7,0.7c-0.2,0.2-0.5,0.3-0.7,0.3s-0.5-0.1-0.7-0.3c-0.4-0.4-0.4-1,0-1.4
	l0.7-0.7l-0.7-0.7c-0.4-0.4-0.4-1,0-1.4s1-0.4,1.4,0l0.7,0.7l0.7-0.7c0.4-0.4,1-0.4,1.4,0s0.4,1,0,1.4L24.4,20L25.1,20.7z"/>
</svg>